<svg width="32" height="32" viewBox="0 0 8.467 8.467" version="1.1" id="svg5" xmlns="http://www.w3.org/2000/svg"><g id="layer1"><path style="fill:none;stroke:#000;stroke-width:.270191px;stroke-linecap:butt;stroke-linejoin:miter;stroke-opacity:1" d="M3.313 7.55c-.115-.217-.345-.306-.491-.485-.06-.073-.105-.16-.165-.233-.156-.19-.048-.007-.185-.163-.142-.16-.254-.393-.378-.567C2.022 6 1.88 5.9 1.806 5.824c-.053-.056-.082-.143-.122-.209-.023-.037-.143-.195-.185-.277-.03-.06.137.171.101.115-.113-.179-.2-.224-.306-.51-.054-.144-.064-.29-.083-.442-.011-.087-.048-.167-.061-.254-.016-.105-.01-.218-.02-.324-.038-.38-.132-.816-.083-1.203.019-.145.1-.309.145-.446.042-.127.054-.27.103-.394.083-.21.247-.447.41-.58.067-.053.13-.056.206-.092.148-.072.362-.131.532-.093.118.027.244.1.35.163.069.043.205.116.267.186.281.318.198.706 0 1.041-.102.173-.28.336-.369.487-.027.045-.14.1-.143.115-.005.021.401.018.44.024.121.017.246.023.368.046.064.012.125.04.19.048.109.011.219-.009.328 0 .1.007.496.1.586.049.012-.008.008-.032.018-.044.23-.26.074-.049.206-.306.098-.19.222-.364.32-.554.131-.254.351-.898.537-1.048.093-.075.224-.08.333-.07.126.011.293.047.396.14.107.096.024.038.102.162.066.103.136.193.164.324.028.126.02.208.02.336 0 .125.015.25 0 .375a1.985 1.985 0 0 1-.218.645c-.03.055-.146.314-.197.343-.138.078-.705.219-.753.367-.02.065 0 .18 0 .245 0 .085-.01.17 0 .255.005.042.143.439.164.485.042.095.03.044.082.115.107.152.079.23.155.38.075.149.123.035.09.221-.007.037-.01.125-.02.161-.044.148-.15.288-.225.416-.232.392-.399.755-.799.949-.056.027-.106.07-.164.092-.096.037-.188.034-.286.047-.08.01-.174.048-.244.067-.062.017-.139-.01-.202 0-.136.019-.03.02-.144.046-.051.012-.16 0-.2.023-.018.01-.035.037-.054.044-.101.039-.098-.024-.228.06z" id="path200"/>
<style>
  @media (prefers-color-scheme: dark) {
    :root {
      filter: invert(100%);
    }
  }
</style>



<path style="fill:none;stroke:#000;stroke-width:.264583px;stroke-linecap:butt;stroke-linejoin:miter;stroke-opacity:1" d="M5.828 2.246c-.114.025-.112.145-.177.21-.027.027-.104.043-.126.064-.026.026-.018.063-.061.083-.012.006.148.216.16.228l.021.02c0 .015-.01.033 0 .044.01.01.03-.007.043 0 .001 0 .029.106.058.076.004-.004.082-.121.083-.123.029-.036.082-.066.105-.105.033-.055.092-.371.02-.438-.034-.033-.047-.041-.126-.06z" id="path202"/><path style="fill:none;stroke:#000;stroke-width:.264583px;stroke-linecap:butt;stroke-linejoin:miter;stroke-opacity:1" d="M2.147 1.877c-.045.035-.086.075-.136.104-.012.007-.03-.006-.042 0-.007.003.004.016 0 .021-.014.014-.066.03-.085.042-.029.02.2.367.209.368.033.004.044-.052.061-.08.028-.046.139-.19.105-.247-.01-.016-.029-.023-.038-.038-.004-.007.007-.02 0-.025-.03-.017-.015.03-.04-.02-.02-.04-.02-.084-.034-.125z" id="path204"/><path style="fill:none;stroke:#000;stroke-width:.264583px;stroke-linecap:butt;stroke-linejoin:miter;stroke-opacity:1" d="M2.359 3.683c.04.11.111.212.192.293" id="path206"/><path style="fill:none;stroke:#000;stroke-width:.264583px;stroke-linecap:butt;stroke-linejoin:miter;stroke-opacity:1" d="M3.949 3.813c-.055.167-.03.208.034.337" id="path208"/><path style="fill:none;stroke:#000;stroke-width:.264583px;stroke-linecap:butt;stroke-linejoin:miter;stroke-opacity:1" d="M3.123 4.614c-.039.095-.233.345-.133.436.038.036.084.014.128.043a.52.52 0 0 0 .255.085" id="path210"/><path style="fill:none;stroke:#000;stroke-width:.264583px;stroke-linecap:butt;stroke-linejoin:miter;stroke-opacity:1" d="M2.926 5.868c.139-.004.272.138.416.082.042-.016.062-.094.095-.094" id="path212"/><path style="stroke:#f6d5ff;stroke-width:.0402741;fill:#00f" d="M12.485 27.614a9.827 9.827 0 0 0-.731-.64c-.526-.423-.664-.57-.96-1.017-.3-.452-.617-.815-.836-.955-.252-.16-.514-.498-.979-1.26-.65-1.066-.767-1.215-1.376-1.755-.316-.28-.465-.444-.542-.595a9.479 9.479 0 0 0-.275-.49 2.956 2.956 0 0 1-.217-.423c-.026-.077-.154-.286-.285-.463-.448-.604-.62-.878-.771-1.23-.199-.46-.262-.713-.361-1.456a8.403 8.403 0 0 0-.182-.959c-.075-.259-.11-.507-.14-1.02a33.659 33.659 0 0 0-.177-1.773c-.19-1.506-.238-2.134-.207-2.704.032-.602.084-.822.369-1.575.125-.33.288-.863.362-1.184.157-.681.198-.806.402-1.21.295-.585.852-1.317 1.17-1.536.169-.117.898-.421 1.32-.552.397-.122.769-.146 1.073-.068.465.12 1.692.818 2.014 1.148.653.667.727 1.689.203 2.809-.215.458-.445.8-.925 1.378-.228.273-.485.598-.571.72a1.64 1.64 0 0 1-.35.354 1.294 1.294 0 0 0-.3.292l-.108.163.089.275c.13.398.183.419 1.148.443.96.024 2.05.146 2.546.285.35.097.438.106 1.028.099.533-.007.752.01 1.249.094.728.124 1.55.171 1.76.102a.82.82 0 0 0 .45-.362c.052-.081.184-.246.295-.367.133-.147.274-.376.42-.684.122-.254.402-.762.623-1.127.587-.97.724-1.238 1.224-2.397.8-1.856 1.158-2.484 1.503-2.64.325-.148 1.1-.076 1.6.148.275.123.342.192.529.539.077.144.232.413.346.597.281.46.32.672.346 1.906.025 1.17-.012 1.48-.267 2.248-.162.486-.972 2.192-1.086 2.287-.029.024-.451.191-.938.373-1.447.537-1.994.88-2.114 1.326-.03.113-.042.513-.033 1.184l.012 1.013.217.645c.356 1.062.511 1.431.692 1.65.21.255.285.402.414.83.142.467.279.766.428.936l.125.142-.042.335c-.046.37-.21.76-.532 1.262a50.9 50.9 0 0 0-.676 1.128c-1.049 1.787-1.408 2.178-2.64 2.87-.404.228-.552.272-1.111.33-.212.022-.548.09-.745.15-.287.089-.448.112-.806.119-.438.007-.556.027-.882.151a1.34 1.34 0 0 1-.382.063c-.277.003-.475.056-.652.177a.605.605 0 0 1-.337.098c-.193.006-.207-.002-.421-.227zm.389-4.67c.153-.08.416-.345.416-.42 0-.019-.053-.005-.118.028a.738.738 0 0 1-.141.062c-.012 0-.022-.227-.022-.504 0-.276-.014-.503-.03-.503-.143.001-.348.107-.47.242-.08.089-.166.16-.193.16-.026 0-.23-.07-.453-.156-.223-.087-.5-.17-.616-.185l-.212-.028v.527c0 .439.01.527.06.527.032 0 .237.071.454.158.484.192.524.201.876.188.191-.007.335-.038.449-.096zm-.116-3.376-.011-.51-.218-.055c-.12-.03-.313-.11-.428-.176a.994.994 0 0 0-.275-.12c-.036 0-.066-.022-.066-.048 0-.027.118-.26.262-.518a5.14 5.14 0 0 0 .261-.506c0-.02-.213-.12-.473-.222l-.473-.186-.155.267c-.515.884-.614 1.336-.39 1.774a.82.82 0 0 0 .505.386c.066.014.262.09.434.168.377.172.634.246.866.251l.172.004-.011-.51zm2.305-3.861c.243-.122.443-.241.443-.264a.907.907 0 0 0-.085-.208c-.083-.161-.087-.246-.028-.611.01-.064-.063-.102-.464-.236-.262-.088-.483-.152-.492-.143a1.996 1.996 0 0 0-.083.275c-.098.383-.063.757.104 1.12.073.158.14.288.148.288.008 0 .214-.1.457-.221zm-5.218-1.244a2.939 2.939 0 0 1-.32-.472l-.14-.267-.474.172c-.54.197-.522.166-.312.584.14.278.346.572.557.795l.124.131.372-.37.37-.37zm12.147-2.793a.876.876 0 0 0 .22-.246c.065-.103.238-.315.385-.471a3.23 3.23 0 0 0 .313-.37c.085-.158.204-.745.231-1.135.058-.843-.218-1.276-.924-1.45-.415-.101-.856.164-1.088.654-.097.204-.134.242-.32.324-.242.107-.47.345-.47.491a.93.93 0 0 1-.102.3c-.093.184-.097.211-.046.332.031.072.185.305.343.519.158.214.288.418.288.455 0 .109.575.658.709.676a.77.77 0 0 0 .461-.08zM8.287 9.497a.847.847 0 0 0 .185-.186l.26-.436c.254-.422.33-.627.33-.89 0-.232-.072-.401-.265-.627-.076-.089-.138-.182-.138-.207 0-.098-.26-.888-.292-.888-.018 0-.24.163-.491.362-.252.2-.496.363-.543.363-.046 0-.124.045-.172.1-.048.056-.114.1-.147.1-.033 0-.139.083-.235.183-.156.163-.174.202-.174.375 0 .236.195.654.572 1.226.319.485.56.675.817.643a.733.733 0 0 0 .293-.118z" id="path1825" transform="scale(.26458)"/></g><style>@media (prefers-color-scheme:dark){.rect{fill:yellow}}</style></svg>
